<?xml version="1.0" standalone="no"?>
<!DOCTYPE svg PUBLIC "-//W3C//DTD SVG 20010904//EN"
 "http://www.w3.org/TR/2001/REC-SVG-20010904/DTD/svg10.dtd">
<svg version="1.0" xmlns="http://www.w3.org/2000/svg"
 width="1280.000000pt" height="753.000000pt" viewBox="0 0 1280.000000 753.000000"
 preserveAspectRatio="xMidYMid meet">
<g transform="translate(0.000000,753.000000) scale(0.100000,-0.100000)"
fill="#000000" stroke="none">
<path d="M2365 5952 c-36 -8 -55 -38 -55 -89 0 -36 3 -44 12 -35 18 18 41 15
61 -8 21 -25 22 -56 3 -67 -20 -11 -25 -75 -6 -90 13 -11 13 -12 -2 -13 -9 0
-18 -10 -20 -22 -2 -16 -14 -26 -38 -34 -19 -7 -35 -18 -35 -25 0 -8 -3 -16
-7 -19 -4 -3 -10 -107 -14 -230 -3 -124 -11 -233 -16 -244 -8 -14 -17 -17 -41
-12 -17 4 -35 13 -40 21 -5 10 -25 15 -62 15 -45 0 -57 -4 -73 -25 -11 -14
-24 -25 -30 -25 -6 0 -12 -77 -16 -197 -19 -592 -29 -839 -33 -847 -3 -4 -18
-6 -33 -3 -32 7 -50 -8 -50 -40 0 -31 -28 -30 -36 2 -4 18 -17 28 -46 37 -22
6 -42 18 -45 25 -6 16 -62 8 -106 -14 -36 -18 -57 -11 -57 19 0 26 -43 78 -65
78 -8 0 -21 10 -29 22 l-15 22 -21 -27 c-39 -50 -51 -36 -49 56 1 45 1 148 0
228 l-1 147 -57 6 c-156 17 -156 17 -190 51 -18 18 -33 43 -33 56 0 18 -3 20
-12 11 -18 -18 -27 -15 -40 18 -13 29 -14 29 -43 15 -19 -10 -37 -31 -48 -55
-9 -22 -22 -40 -27 -40 -14 0 -30 -43 -35 -98 -3 -25 -11 -53 -20 -62 -8 -9
-15 -27 -15 -40 0 -12 -9 -37 -19 -54 -13 -20 -20 -52 -22 -91 -1 -33 -8 -70
-16 -83 -8 -13 -11 -32 -8 -42 5 -15 2 -20 -13 -20 -11 0 -25 7 -32 15 -7 8
-18 15 -24 15 -6 0 0 -9 13 -19 17 -13 20 -20 12 -26 -9 -5 -3 -13 18 -26 41
-25 39 -45 -4 -53 -31 -6 -36 -11 -41 -46 -4 -27 -12 -40 -23 -41 -82 -8 -98
-6 -123 12 -15 10 -38 19 -51 19 -12 0 -28 5 -35 12 -9 9 -13 7 -18 -5 -3 -9
-13 -17 -20 -17 -10 0 -14 -10 -12 -33 1 -18 -2 -38 -6 -45 -8 -13 -58 -15
-130 -6 -36 5 -46 11 -46 25 0 11 -4 19 -10 19 -5 0 -10 -11 -10 -24 0 -29 -3
-31 -52 -40 -28 -5 -38 -3 -38 6 0 20 -66 69 -85 62 -9 -4 -21 1 -29 11 -26
36 -43 11 -49 -77 -4 -45 -7 -935 -7 -1975 l0 -1893 6401 0 6400 0 -3 2497
c-2 1374 -6 2503 -11 2510 -6 9 -15 9 -40 -2 -58 -24 -249 -36 -596 -38 -325
-2 -343 -1 -356 17 -8 10 -25 24 -37 30 -18 9 -24 22 -28 60 -5 49 -6 50 -49
60 -42 10 -45 14 -61 63 -11 34 -14 57 -7 68 12 23 3 40 -30 57 -21 10 -33 11
-49 3 -34 -17 -54 -36 -48 -46 8 -14 24 -10 24 6 0 15 21 21 33 9 11 -11 -5
-34 -24 -34 -10 0 -19 -4 -19 -10 0 -5 -16 -12 -35 -16 -32 -6 -35 -9 -35 -40
0 -25 -7 -38 -25 -50 -14 -9 -25 -22 -25 -28 0 -7 -11 -23 -24 -35 -13 -13
-27 -34 -30 -47 -5 -17 -16 -26 -36 -30 -16 -4 -31 -12 -34 -19 -2 -7 -22 -15
-44 -19 -46 -7 -55 -25 -41 -87 8 -36 7 -238 -5 -744 -4 -150 -27 -244 -65
-264 -28 -15 -74 -14 -96 3 -16 11 -20 30 -23 90 -4 63 -7 76 -21 76 -22 0
-41 19 -41 41 0 26 -41 31 -250 36 -102 2 -194 4 -205 4 -11 0 -38 -3 -60 -8
-36 -7 -41 -12 -45 -42 -3 -20 -13 -39 -25 -45 -11 -6 -22 -12 -24 -13 -2 -2
-7 -41 -11 -87 -4 -47 -12 -92 -20 -100 -14 -18 -65 -22 -75 -6 -11 18 -47 11
-52 -11 -5 -17 -12 -20 -36 -16 -16 2 -44 -3 -60 -11 -28 -14 -35 -14 -78 1
-26 9 -53 17 -61 17 -19 0 -28 141 -28 456 l0 231 -39 89 c-28 63 -42 111 -47
164 l-8 75 -11 -65 -10 -65 -75 3 c-86 3 -100 13 -101 76 0 52 -13 24 -24 -53
-4 -29 -22 -85 -40 -125 l-32 -71 -13 -282 c-13 -262 -15 -283 -32 -283 -10 0
-27 9 -38 20 -11 11 -29 20 -40 20 -10 0 -23 7 -28 16 -5 9 -24 19 -43 23 -21
4 -38 15 -44 29 -13 30 -23 28 -27 -5 -2 -21 -9 -29 -26 -31 -14 -2 -31 -16
-40 -33 -10 -16 -24 -31 -33 -34 -13 -4 -18 -25 -24 -90 -4 -46 -13 -92 -20
-102 -13 -17 -15 -16 -27 14 -10 28 -18 33 -58 39 -25 4 -61 16 -81 27 -32 18
-42 20 -75 10 -64 -18 -133 -33 -153 -33 -10 0 -26 -11 -34 -24 -14 -20 -26
-24 -96 -29 -67 -4 -85 -9 -114 -33 -31 -24 -34 -31 -30 -65 7 -46 -14 -60
-52 -35 -13 9 -38 16 -54 16 -36 0 -46 16 -55 85 -11 80 -18 116 -22 112 -2
-2 -11 -39 -20 -82 -18 -86 -37 -125 -63 -125 -9 0 -28 -6 -43 -14 -15 -8 -29
-12 -32 -8 -3 3 -6 42 -6 86 l0 81 -32 16 c-45 22 -100 39 -125 39 -24 0 -33
24 -33 86 l0 41 -62 8 c-80 9 -120 8 -152 -5 -22 -8 -26 -15 -26 -53 0 -60
-16 -79 -65 -75 l-40 3 -5 292 c-3 160 -7 293 -10 296 -10 9 -286 23 -315 16
-16 -4 -42 -10 -57 -13 l-28 -6 0 -144 c0 -80 -3 -151 -6 -160 -3 -9 -16 -16
-29 -16 -25 0 -49 -23 -64 -62 -7 -19 -22 -30 -49 -39 l-39 -11 -7 -126 c-4
-71 -12 -132 -18 -140 -14 -17 -93 -12 -217 12 -97 19 -109 26 -113 68 -4 46
-24 45 -32 -1 -6 -43 -32 -66 -60 -55 -13 5 -16 26 -16 120 l0 114 -27 11
c-16 6 -57 12 -93 13 -36 1 -71 6 -78 10 -7 4 -12 24 -12 44 0 32 -4 39 -27
48 -18 6 -37 7 -54 1 -26 -10 -26 -12 -32 -136 -4 -69 -7 -165 -7 -213 0 -65
-4 -90 -16 -102 -19 -19 -26 -20 -42 -4 -9 9 -12 92 -12 313 l0 301 -37 10
c-38 9 -38 9 -44 70 -3 33 -9 65 -12 71 -15 24 -306 34 -333 12 -17 -14 -23
-53 -34 -218 -5 -79 -14 -149 -19 -154 -16 -16 -24 77 -18 195 6 121 0 138
-54 138 -17 0 -44 7 -60 16 -58 29 -339 0 -339 -35 0 -9 -13 -28 -30 -43 l-30
-26 0 -135 c0 -145 -8 -227 -21 -227 -5 0 -9 97 -9 215 0 202 -1 215 -19 225
-12 6 -93 10 -195 10 -157 0 -176 -2 -184 -17 -5 -10 -12 -118 -16 -241 -4
-123 -10 -230 -13 -238 -7 -20 -54 -17 -83 6 -14 11 -35 20 -47 20 -18 0 -22
8 -28 60 -4 36 -12 60 -19 60 -7 0 -36 12 -65 26 -39 20 -55 24 -64 15 -6 -6
-44 -11 -89 -11 -62 0 -81 4 -95 18 -10 11 -47 25 -83 31 -36 7 -73 15 -82 18
-17 4 -18 25 -18 253 l0 249 -57 7 c-74 8 -94 21 -173 109 -59 66 -67 72 -85
60 -16 -10 -21 -27 -25 -84 -4 -55 -9 -75 -22 -82 -16 -9 -18 -27 -18 -147 0
-75 -3 -146 -6 -157 -5 -20 -13 -21 -109 -20 -87 0 -106 -3 -117 -17 -7 -9
-25 -22 -40 -27 -23 -9 -28 -17 -28 -43 0 -48 -13 -63 -54 -60 -44 3 -101 -20
-115 -47 -7 -11 -25 -28 -41 -36 -27 -14 -30 -20 -30 -68 0 -67 -8 -77 -61
-83 -92 -11 -89 -8 -89 -74 0 -32 -4 -62 -10 -65 -5 -3 -21 2 -35 11 l-25 16
0 240 c0 274 8 251 -100 307 -104 55 -94 19 -100 362 l-5 303 -54 12 c-29 6
-57 18 -62 25 -12 19 -11 152 2 343 9 141 8 160 -6 176 -17 19 -18 31 -15 178
1 58 -3 103 -12 122 -13 31 -49 49 -83 42z m1 -43 c8 -14 -18 -31 -30 -19 -9
9 0 30 14 30 5 0 12 -5 16 -11z m9224 -624 c0 -8 -4 -15 -10 -15 -5 0 -10 7
-10 15 0 8 5 15 10 15 6 0 10 -7 10 -15z m-110 -85 c0 -13 -7 -20 -20 -20 -19
0 -27 20 -13 33 13 14 33 6 33 -13z m978 -303 c22 -17 7 -32 -44 -42 -47 -11
-49 -12 -56 -53 -4 -23 -10 -47 -13 -52 -3 -6 -32 -10 -64 -10 -35 0 -63 -5
-69 -13 -7 -7 -12 -89 -14 -204 -2 -155 -6 -195 -18 -207 -10 -10 -63 -21
-155 -32 -179 -21 -211 -22 -227 -6 -19 19 -19 595 0 614 10 10 78 14 265 18
274 6 375 3 395 -13z m-11042 -844 c-10 -10 -19 5 -10 18 6 11 8 11 12 0 2 -7
1 -15 -2 -18z m-621 -83 c3 -6 -1 -13 -10 -16 -19 -8 -30 0 -20 15 8 14 22 14
30 1z m6842 -221 c-5 -62 -13 -83 -28 -74 -12 8 -11 102 2 126 18 35 32 10 26
-52z"/>
<path d="M2310 5730 c0 -18 4 -29 10 -25 6 3 10 15 10 25 0 10 -4 22 -10 25
-6 4 -10 -7 -10 -25z"/>
<path d="M2310 5645 c0 -8 7 -15 16 -15 14 0 14 3 4 15 -7 8 -14 15 -16 15 -2
0 -4 -7 -4 -15z"/>
<path d="M11550 5477 c0 -10 -10 -22 -22 -27 -18 -7 -19 -9 -5 -9 23 -1 33
-27 17 -46 -13 -16 -6 -35 15 -35 21 0 28 19 14 36 -9 12 -10 20 -2 33 8 13 7
24 -3 42 -10 19 -13 20 -14 6z"/>
<path d="M11473 5396 c19 -19 40 -21 35 -3 -3 6 -15 14 -28 15 -21 4 -22 2 -7
-12z"/>
<path d="M665 4051 c-31 -6 -32 -10 -17 -37 7 -13 11 -13 38 1 16 8 36 15 44
15 11 1 10 4 -4 15 -11 8 -22 14 -25 14 -3 -1 -19 -4 -36 -8z"/>
</g>
</svg>
